<svg xmlns="http://www.w3.org/2000/svg" viewBox="0 0 64 64">
  <rect width="64" height="64" rx="14" fill="#2B2620"/>
  <path fill="#F7F3EC" d="M29.02 37.73Q29.34 37.86 29.43 38.28Q29.51 38.70 29.07 39.46Q28.05 41.66 26.39 43.21Q24.72 44.76 22.59 45.56Q20.45 46.36 17.96 46.36Q14.75 46.36 12.42 44.86Q10.09 43.37 9.09 40.49Q8.08 37.60 8.80 33.40Q9.33 30.32 10.72 27.67Q12.11 25.02 14.15 23.02Q16.19 21.03 18.70 19.92Q21.21 18.81 23.98 18.81Q25.18 18.81 26.03 19.05Q26.87 19.30 27.43 19.64Q27.99 19.98 28.36 20.23Q28.73 20.48 29 20.48Q29.26 20.48 29.57 20.23Q29.87 19.98 30.19 19.66Q30.50 19.34 30.81 19.09Q31.13 18.84 31.41 18.84Q31.85 18.84 32.10 19.09Q32.34 19.34 32.36 19.79L32.40 26.63Q32.40 27.11 32.11 27.35Q31.81 27.58 31.41 27.58Q30.63 27.58 30.33 26.71L29.91 25.32Q29.21 22.85 27.93 21.80Q26.66 20.74 24.72 20.74Q22.99 20.74 21.45 21.64Q19.90 22.53 18.62 24.15Q17.35 25.78 16.45 27.97Q15.55 30.17 15.07 32.77Q14.41 36.63 14.90 39Q15.39 41.38 16.77 42.46Q18.15 43.54 20.05 43.54Q21.44 43.54 22.74 43.03Q24.04 42.52 25.23 41.40Q26.41 40.28 27.42 38.49Q27.90 37.98 28.28 37.78Q28.66 37.58 29.02 37.73M36.50 20.21Q36.52 19.79 36.86 19.55Q37.19 19.30 37.78 19.30L50.83 19.30Q51.91 19.30 52.56 18.97Q53.20 18.63 53.79 18.63Q54.71 18.63 54.88 19.64L55.47 25.34Q55.56 25.86 55.35 26.15Q55.14 26.44 54.72 26.50Q54.23 26.56 53.90 26.28Q53.57 26.01 53.28 25.36L52.92 24.30Q52.54 23.04 52.05 22.28Q51.55 21.52 50.84 21.18Q50.13 20.84 49.04 20.84L44.86 20.84Q44.58 21.87 44.17 23.35Q43.76 24.83 43.28 26.61Q42.79 28.38 42.30 30.27Q41.80 32.16 41.32 34.02Q40.84 35.87 40.41 37.52Q39.98 39.17 39.66 40.48Q39.33 41.78 39.14 42.54Q38.99 43.15 39.08 43.50Q39.16 43.85 39.85 43.96L41.29 44.15Q41.77 44.23 41.98 44.44Q42.18 44.65 42.18 44.95Q42.18 45.37 41.85 45.63Q41.52 45.90 40.80 45.90L31.34 45.90Q30.73 45.90 30.51 45.67Q30.29 45.44 30.29 45.08Q30.31 44.74 30.57 44.49Q30.82 44.25 31.34 44.11L32.32 43.91Q32.80 43.79 33.07 43.47Q33.35 43.15 33.54 42.52Q33.81 41.59 34.19 40.25Q34.57 38.91 35 37.31Q35.44 35.72 35.89 34Q36.33 32.28 36.78 30.59Q37.23 28.90 37.62 27.37Q38 25.84 38.31 24.61Q38.61 23.39 38.78 22.63Q38.94 21.98 38.82 21.68Q38.71 21.37 38.27 21.26L37.28 21.01Q36.90 20.86 36.70 20.69Q36.50 20.52 36.50 20.21M39.01 33.72L39.49 32.18L45.76 32.18Q46.73 32.18 47.33 31.61Q47.94 31.04 48.21 29.54Q48.34 29.20 48.54 29.05Q48.74 28.90 49.04 28.90Q49.46 28.90 49.68 29.12Q49.90 29.35 49.96 29.75L50.81 35.74Q50.92 36.32 50.67 36.60Q50.41 36.88 49.99 36.89Q49.65 36.89 49.42 36.71Q49.20 36.53 49.01 36.17Q48.66 35.30 48.26 34.77Q47.87 34.23 47.28 33.98Q46.69 33.72 45.76 33.72"/>
</svg>